# xmcd
#
# Track frame offsets:
#	150
#	19562
#	34303
#	58672
#	68718
#	87947
#	103293
#	121121
#	137131
#	152895
#	178555
#	204837
#	222653
#	236792
#	256390
#	274867
#	291854
#	310936
#	328434
#
# Disc length: 4651 seconds
# Revision: 0
# Processed by: cddbd v1.5.2PL0 Copyright (c) Steve Scherf et al.
# Submitted via: dBpowerAMP V12.0
#
DISCID=25122913
DTITLE=Various Artist - The Blues Train - Shake, Rattle n' Roll
DYEAR=2015
DGENRE=Blues
TTITLE0=Jimi Hocking - Lonely Days
TTITLE1=Cass Eager and The Velvet Rope - Take These Wings
TTITLE2=Sammy Owen Blues Band - Me,myself,the Guitar And I
TTITLE3=Spoonful - Dialled To The Nines
TTITLE4=Pugsley Buzzard - Dirty Wings
TTITLE5=Chris Wilson - Something That I Said
TTITLE6=Phil Manning - If You Want To Be My Queen
TTITLE7=Alister Turrill - Long Way From Lonsdale
TTITLE8=Fiona Boyes - Juke Joint On Moses Lane.
TTITLE9=Mojo Webb - Gypsy Blues
TTITLE10=Geoff Achison - Be Careful What You Look For
TTITLE11=Claude Hay - Get Me Some
TTITLE12=Dallas Frasca - Learn Your Roots
TTITLE13=Lloyd Spiegel - Rock And A Hard Place
TTITLE14=Blue Eyes Cry - Shake Down
TTITLE15=Blues Mountain Trio - Baby It Won't Be Long
TTITLE16=Andrea Marr Band - Steam Up The Windows
TTITLE17=Sweet Felicia and The Honeytones - Big Strong Woman
TTITLE18=Continental Robert Susz - Quick Sand
EXTD=
EXTT0=
EXTT1=
EXTT2=
EXTT3=
EXTT4=
EXTT5=
EXTT6=
EXTT7=
EXTT8=
EXTT9=
EXTT10=
EXTT11=
EXTT12=
EXTT13=
EXTT14=
EXTT15=
EXTT16=
EXTT17=
EXTT18=
PLAYORDER=
